<?xml version="1.0" encoding="UTF-8"?>
<svg id="Layer_1" xmlns="http://www.w3.org/2000/svg" version="1.1" xmlns:xlink="http://www.w3.org/1999/xlink" viewBox="0 0 2048 2048">
  <!-- Generator: Adobe Illustrator 29.8.2, SVG Export Plug-In . SVG Version: 2.1.1 Build 3)  -->
  <defs>
    <style>
      .st0 {
        clip-path: url(#clippath-1);
      }

      .st1 {
        clip-path: url(#clippath-3);
      }

      .st2 {
        fill: #fa0;
      }

      .st3 {
        clip-path: url(#clippath-2);
      }

      .st4 {
        fill: #214440;
      }

      .st5 {
        clip-path: url(#clippath);
      }
    </style>
    <clipPath id="clippath">
      <rect class="st4" x="64.45" y="272.25" width="891.4" height="1200.16"/>
    </clipPath>
    <clipPath id="clippath-1">
      <rect class="st4" x="1101.94" y="210.11" width="867.43" height="1262.31"/>
    </clipPath>
    <clipPath id="clippath-2">
      <path class="st4" d="M1965.38,1687.94s-34.57-11.52-102.42-50.79c-17.77-10.28-100-57.49-120.14-65.14-106.36-40.41-210.01-34.47-210.01-34.47,0,0-103.65-5.94-210.01,34.47-20.14,7.65-102.37,54.86-120.14,65.14-67.85,39.27-102.42,50.79-102.42,50.79l112.84,221.17-9.4,44.23h658.26l-9.4-44.23,112.84-221.17Z"/>
    </clipPath>
    <clipPath id="clippath-3">
      <path class="st4" d="M952.29,1687.94s-34.57-11.52-102.42-50.79c-17.77-10.28-100-57.49-120.14-65.14-106.36-40.41-210.01-34.47-210.01-34.47,0,0-103.65-5.94-210.01,34.47-20.14,7.65-102.37,54.86-120.14,65.14-67.85,39.27-102.42,50.79-102.42,50.79l112.84,221.17-9.4,44.23h658.26l-9.4-44.23,112.84-221.17Z"/>
    </clipPath>
  </defs>
  <g>
    <rect class="st4" x="64.45" y="272.25" width="891.4" height="1200.16"/>
    <g class="st5">
      <g>
        <g>
          <g>
            <path d="M62.56,1535.17s89.98-273.92,62.74-382.23c0,0,79.95,310.11,37.48,383.59l-100.22-1.35Z"/>
            <path class="st2" d="M163.23,1537.3h-.46s-101.28-1.37-101.28-1.37l.33-1c.23-.68,22.71-69.4,41.57-150.44,17.4-74.75,35.19-175.56,21.16-231.36l1.51-.38c.2.78,20.16,78.55,34.68,164.3,19.51,115.26,20.43,189.23,2.72,219.87l-.23.39ZM63.62,1534.41l98.71,1.33c17.04-30.16,15.96-105.66-3.13-218.43-9.97-58.87-22.5-113.98-29.44-142.96,6.2,57.97-9.49,144.42-24.87,210.5-17.64,75.77-38.43,140.77-41.28,149.56Z"/>
          </g>
          <g>
            <path d="M956.81,1535.17s-89.98-273.92-62.74-382.23c0,0-79.95,310.11-37.48,383.59l100.22-1.35Z"/>
            <path class="st2" d="M856.15,1537.3l-.23-.39c-17.71-30.63-16.79-104.61,2.72-219.87,14.52-85.75,34.48-163.53,34.68-164.3l1.51.38c-14.03,55.8,3.76,156.62,21.16,231.37,18.86,81.05,41.34,149.75,41.57,150.43l.33,1-101.74,1.37ZM889.6,1174.35c-6.94,28.98-19.47,84.09-29.44,142.97-19.09,112.77-20.17,188.27-3.13,218.42l98.71-1.33c-2.85-8.79-23.64-73.79-41.28-149.56-15.38-66.08-31.06-152.53-24.87-210.5Z"/>
          </g>
        </g>
        <g>
          <path d="M64.65,760.02s162.47,255.11,142.48,623.64c0,0-72.46-445.87-182.4-600.56-109.94-154.69,39.92-23.08,39.92-23.08Z"/>
          <path class="st2" d="M207.65,1393.43l-1.56-9.6c-.18-1.11-18.48-112.94-49.96-242.21-29.04-119.25-75.56-278.14-132.26-357.91-43.02-60.53-42.8-72.21-38.9-75.73,1.73-1.56,6.99-6.31,44.63,22.14,18.29,13.83,35.56,28.97,35.73,29.12l.19.23c.41.64,41.12,65.14,78.84,173.84,22.15,63.83,38.96,130.21,49.96,197.28,13.75,83.84,18.41,169.01,13.84,253.14l-.53,9.71ZM-11.24,708.79c-1.02,0-1.82.24-2.38.74-2.88,2.6-1.61,15.53,39.2,72.96,56.89,80.04,103.5,239.22,132.59,358.65,26.21,107.6,43.28,203.11,48.38,232.84,8.51-185.92-30-341.5-64.14-439.92-36.85-106.21-76.54-170.1-78.57-173.35-24.21-21.25-63.53-51.91-75.08-51.91Z"/>
        </g>
        <g>
          <path d="M955.65,760.02s-162.47,255.11-142.48,623.64c0,0,72.46-445.87,182.4-600.56,109.94-154.69-39.92-23.08-39.92-23.08Z"/>
          <path class="st2" d="M812.65,1393.43l-.53-9.71c-4.56-84.13.09-169.3,13.84-253.14,11-67.07,27.81-133.44,49.96-197.28,37.72-108.7,78.43-173.2,78.84-173.84l.19-.23c.17-.15,17.44-15.29,35.73-29.12,37.64-28.45,42.9-23.7,44.63-22.14,3.9,3.52,4.12,15.21-38.9,75.73-56.69,79.77-103.21,238.66-132.26,357.91-31.48,129.27-49.78,241.09-49.96,242.21l-1.56,9.6ZM956.46,760.71c-2.04,3.24-41.72,67.14-78.57,173.35-34.15,98.43-72.65,254-64.14,439.92,5.1-29.72,22.18-125.24,48.38-232.84,29.09-119.43,75.7-278.61,132.59-358.65,40.81-57.43,42.08-70.36,39.2-72.96-6.88-6.2-51.11,28.05-77.46,51.17Z"/>
        </g>
      </g>
    </g>
  </g>
  <g>
    <rect class="st4" x="1101.94" y="210.11" width="867.43" height="1262.31"/>
    <g class="st0">
      <g>
        <g>
          <g>
            <path d="M1100.43,1595.19s87.49-472.26,61.01-659c0,0,77.74,534.65,36.44,661.33l-97.45-2.33Z"/>
            <path class="st2" d="M1198.61,1598.54l-99.38-2.38.21-1.16c.22-1.18,22.08-119.66,40.43-259.43,16.93-128.95,34.24-302.9,20.57-399.25l1.99-.29c.19,1.34,19.6,135.4,33.72,283.21,13.03,136.5,24.08,312.97,2.69,378.58l-.23.71ZM1101.64,1594.21l95.52,2.29c16.6-52.15,15.57-182.48-3.01-377.05-9.3-97.37-20.89-188.76-27.77-240.16,5.07,99.72-9.86,244.97-24.51,356.56-17.38,132.41-37.92,245.73-40.23,258.36Z"/>
          </g>
          <g>
            <path d="M1969.97,1595.19s-87.49-472.26-61.01-659c0,0-77.74,534.65-36.44,661.33l97.45-2.33Z"/>
            <path class="st2" d="M1871.79,1598.54l-.23-.71c-21.39-65.61-10.34-242.09,2.69-378.58,14.11-147.81,33.52-281.87,33.72-283.21l1.99.29c-13.66,96.35,3.65,270.29,20.57,399.25,18.35,139.77,40.21,258.25,40.43,259.43l.21,1.16-99.38,2.38ZM1904.02,979.29c-6.88,51.4-18.48,142.79-27.77,240.16-18.58,194.57-19.61,324.9-3.01,377.05l95.52-2.29c-2.31-12.64-22.85-125.95-40.23-258.36-14.65-111.58-29.58-256.84-24.51-356.56Z"/>
          </g>
        </g>
        <g>
          <path d="M1102.47,258.77s157.97,439.84,138.54,1075.21c0,0-70.46-768.72-177.35-1035.41-106.9-266.7,38.82-39.79,38.82-39.79Z"/>
          <path class="st2" d="M1239.65,1334.09c-.18-1.92-17.97-194.74-48.58-417.64-28.25-205.68-73.51-479.75-128.68-617.39-44.58-111.22-41.9-128.13-36-131.17,4.04-2.08,13.06.06,44.48,42.64,17.01,23.05,32.58,47.26,32.74,47.5l.14.28c.4,1.1,39.95,112.22,76.61,299.54,21.53,110,37.86,224.38,48.55,339.95,13.36,144.47,17.89,291.23,13.45,436.21l-2.71.08ZM1028.66,170.09c-.44,0-.77.09-1.02.22-1.46.75-4.16,5.17,2.39,29.79,5.75,21.58,17.48,54.54,34.88,97.95,55.27,137.9,100.58,412.21,128.85,618.04,24.61,179.15,40.93,338.86,46.49,395.72,7.71-318.3-29.52-584.62-62.56-753.44-36.01-184.02-74.8-294.35-76.45-299-1.26-1.95-16.25-25.13-32.56-47.23-26.93-36.48-36.62-42.05-40.02-42.05Z"/>
        </g>
        <g>
          <path d="M1968.83,258.77s-157.97,439.84-138.54,1075.21c0,0,70.46-768.72,177.35-1035.41,106.9-266.7-38.82-39.79-38.82-39.79Z"/>
          <path class="st2" d="M1831.65,1334.09l-2.72-.08c-4.43-144.98.09-291.74,13.45-436.21,10.69-115.58,27.02-229.95,48.55-339.95,36.66-187.31,76.22-298.44,76.61-299.54l.14-.28c.16-.24,15.73-24.45,32.74-47.5,31.42-42.57,40.43-44.72,44.48-42.64,5.9,3.04,8.58,19.95-36,131.17-55.17,137.64-100.43,411.71-128.68,617.39-30.62,222.91-48.41,415.72-48.58,417.64ZM1970.06,259.37c-1.65,4.65-40.45,115.03-76.47,299.07-33.03,168.81-70.25,435.11-62.55,753.38,5.56-56.86,21.88-216.57,46.49-395.72,28.27-205.83,73.58-480.14,128.85-618.04,17.4-43.41,29.14-76.36,34.88-97.95,6.56-24.62,3.86-29.03,2.39-29.79-2.22-1.14-10.64.65-41.04,41.82-16.32,22.1-31.31,45.28-32.56,47.23Z"/>
        </g>
      </g>
    </g>
  </g>
  <rect class="st2" x="28.39" y="106.65" width="1041.46" height="65.04"/>
  <rect class="st2" x="28.39" y="171.69" width="1041.46" height="65.04"/>
  <g>
    <path class="st4" d="M1965.38,1687.94s-34.57-11.52-102.42-50.79c-17.77-10.28-100-57.49-120.14-65.14-106.36-40.41-210.01-34.47-210.01-34.47,0,0-103.65-5.94-210.01,34.47-20.14,7.65-102.37,54.86-120.14,65.14-67.85,39.27-102.42,50.79-102.42,50.79l112.84,221.17-9.4,44.23h658.26l-9.4-44.23,112.84-221.17Z"/>
    <g class="st3">
      <g>
        <g>
          <path d="M1201.34,1938.49s89.89-259.15,62.68-361.63c0,0,79.88,293.39,37.44,362.91l-100.12-1.28Z"/>
          <path class="st2" d="M1301.89,1940.53h-.43s-101.17-1.3-101.17-1.3l.34-.99c.22-.65,22.68-65.65,41.53-142.33,17.38-70.71,35.15-166.08,21.14-218.85l1.46-.39s0,0,0,0h0c.29,1.07,20.18,74.5,34.65,155.45,19.5,109.06,20.41,179.06,2.71,208.05l-.22.37ZM1202.39,1937.75l98.65,1.26c17.02-28.51,15.94-99.93-3.13-206.62-9.99-55.9-22.57-108.22-29.48-135.55,6.28,54.86-9.42,136.82-24.81,199.45-17.59,71.58-38.33,132.99-41.22,141.46Z"/>
        </g>
        <g>
          <path d="M1864.11,1938.49s-89.89-259.15-62.68-361.63c0,0-79.88,293.39-37.44,362.91l100.12-1.28Z"/>
          <path class="st2" d="M1763.57,1940.53l-.22-.37c-17.7-28.99-16.79-98.99,2.71-208.05,14.47-80.94,34.36-154.37,34.65-155.44,0,0,0,0,0,0,0,0,0,0,0,0l1.46.39c-14.01,52.78,3.76,148.14,21.14,218.85,18.84,76.68,41.3,141.68,41.53,142.33l.34.99-101.6,1.3ZM1797.02,1596.84c-6.91,27.33-19.49,79.65-29.48,135.55-19.07,106.68-20.15,178.1-3.13,206.62l98.65-1.26c-2.9-8.47-23.63-69.89-41.22-141.46-15.39-62.63-31.09-144.59-24.81-199.45Z"/>
        </g>
      </g>
      <g>
        <rect x="1013.95" y="1900.58" width="1037.71" height="72.77"/>
        <path class="st2" d="M2055.94,1977.61H1009.68v-81.3h1046.25v81.3ZM1018.22,1969.07h1029.17v-64.23H1018.22v64.23Z"/>
      </g>
    </g>
  </g>
  <g>
    <path class="st4" d="M952.29,1687.94s-34.57-11.52-102.42-50.79c-17.77-10.28-100-57.49-120.14-65.14-106.36-40.41-210.01-34.47-210.01-34.47,0,0-103.65-5.94-210.01,34.47-20.14,7.65-102.37,54.86-120.14,65.14-67.85,39.27-102.42,50.79-102.42,50.79l112.84,221.17-9.4,44.23h658.26l-9.4-44.23,112.84-221.17Z"/>
    <g class="st1">
      <g>
        <g>
          <path d="M188.26,1938.49s89.89-259.15,62.68-361.63c0,0,79.88,293.39,37.44,362.91l-100.12-1.28Z"/>
          <path class="st2" d="M288.8,1940.53h-.43s-101.17-1.3-101.17-1.3l.34-.99c.22-.65,22.68-65.65,41.53-142.33,17.38-70.71,35.15-166.08,21.14-218.85l1.46-.39c.2.73,20.15,74.32,34.65,155.45,19.5,109.06,20.41,179.06,2.71,208.05l-.22.37ZM189.31,1937.75l98.65,1.26c17.02-28.51,15.94-99.94-3.13-206.63-9.99-55.9-22.57-108.21-29.48-135.54,6.28,54.86-9.42,136.82-24.81,199.45-17.59,71.58-38.33,132.99-41.22,141.46Z"/>
        </g>
        <g>
          <path d="M851.03,1938.49s-89.89-259.15-62.68-361.63c0,0-79.88,293.39-37.44,362.91l100.12-1.28Z"/>
          <path class="st2" d="M750.48,1940.53l-.22-.37c-17.7-28.99-16.79-98.99,2.71-208.05,14.5-81.13,34.45-154.72,34.65-155.45l1.46.39c-14.01,52.78,3.76,148.14,21.14,218.85,18.85,76.68,41.3,141.68,41.53,142.33l.34.99-101.6,1.3ZM783.94,1596.84c-6.91,27.33-19.49,79.65-29.48,135.55-19.07,106.68-20.15,178.1-3.13,206.62l98.65-1.26c-2.89-8.47-23.63-69.89-41.22-141.46-15.39-62.63-31.09-144.59-24.81-199.45Z"/>
        </g>
      </g>
      <g>
        <rect x=".87" y="1900.58" width="1037.71" height="72.77"/>
        <path class="st2" d="M1042.85,1977.61H-3.4v-81.3h1046.25v81.3ZM5.14,1969.07h1029.17v-64.23H5.14v64.23Z"/>
      </g>
    </g>
  </g>
</svg>