<?xml version="1.0" encoding="UTF-8"?>
<svg id="Layer_1" xmlns="http://www.w3.org/2000/svg" version="1.1" xmlns:xlink="http://www.w3.org/1999/xlink" viewBox="0 0 2048 2048">
  <!-- Generator: Adobe Illustrator 29.8.2, SVG Export Plug-In . SVG Version: 2.1.1 Build 3)  -->
  <defs>
    <style>
      .st0 {
        stroke-width: 3.1px;
      }

      .st0, .st1, .st2, .st3, .st4, .st5, .st6, .st7, .st8 {
        fill: none;
      }

      .st0, .st1, .st2, .st3, .st5, .st6, .st7, .st8 {
        stroke-miterlimit: 2.61;
      }

      .st0, .st5 {
        stroke: #373435;
      }

      .st1 {
        stroke-width: 16.36px;
      }

      .st1, .st2, .st3 {
        stroke: #ccc;
      }

      .st2 {
        stroke-width: 10.81px;
      }

      .st3 {
        stroke-width: 9.71px;
      }

      .st9 {
        fill: #fff;
      }

      .st10 {
        clip-path: url(#clippath-1);
      }

      .st11 {
        clip-path: url(#clippath-3);
      }

      .st5 {
        stroke-width: 2.05px;
      }

      .st6 {
        stroke: #000;
        stroke-width: 8.14px;
      }

      .st12 {
        fill: #ccc;
      }

      .st13 {
        fill-rule: evenodd;
      }

      .st7 {
        stroke-width: 12.41px;
      }

      .st7, .st8 {
        stroke: #f7941d;
      }

      .st14 {
        clip-path: url(#clippath-2);
      }

      .st8 {
        stroke-width: 8.2px;
      }

      .st15 {
        clip-path: url(#clippath);
      }

      .st16 {
        fill: #e6e6e6;
      }
    </style>
    <clipPath id="clippath">
      <rect class="st4" x="88.23" y="221.47" width="856.42" height="1125.28"/>
    </clipPath>
    <clipPath id="clippath-1">
      <rect class="st4" x="1107.6" y="221.47" width="862.11" height="1125.28"/>
    </clipPath>
    <clipPath id="clippath-2">
      <path class="st4" d="M1095.98,1579.38s-46.05-16.25-136.44-71.67c-23.67-14.51-133.22-81.11-160.05-91.91-141.69-57.02-279.77-48.64-279.77-48.64,0,0-138.08-8.38-279.77,48.64-26.83,10.8-136.38,77.4-160.05,91.91-90.39,55.41-136.44,71.67-136.44,71.67l150.33,312.08-12.53,62.42h876.91l-12.53-62.42,150.33-312.08Z"/>
    </clipPath>
    <clipPath id="clippath-3">
      <path class="st4" d="M2106.92,1579.38s-46.05-16.25-136.44-71.67c-23.67-14.51-133.22-81.11-160.05-91.91-141.69-57.02-279.77-48.64-279.77-48.64,0,0-138.08-8.38-279.77,48.64-26.83,10.8-136.38,77.4-160.05,91.91-90.39,55.41-136.44,71.67-136.44,71.67l150.33,312.08-12.53,62.42h876.91l-12.53-62.42,150.33-312.08Z"/>
    </clipPath>
  </defs>
  <g>
    <rect class="st16" x="88.23" y="221.47" width="856.42" height="1125.28"/>
    <g class="st15">
      <g>
        <line class="st3" x1="165.92" y1="1256.22" x2="866.54" y2="1255.5"/>
        <line class="st3" x1="172.69" y1="1157.14" x2="859.77" y2="1156.35"/>
        <line class="st3" x1="178.36" y1="1057.69" x2="854.11" y2="1056.82"/>
        <line class="st3" x1="182.32" y1="957.8" x2="850.17" y2="956.85"/>
      </g>
      <g>
        <line class="st3" x1="183.58" y1="857.43" x2="848.94" y2="856.41"/>
        <line class="st3" x1="180.44" y1="756.49" x2="852.14" y2="755.41"/>
        <line class="st3" x1="169.96" y1="654.8" x2="862.73" y2="653.68"/>
        <line class="st3" x1="162.7" y1="553.71" x2="869.57" y2="552.6"/>
        <line class="st2" x1="88.16" y1="454.16" x2="944.41" y2="452.93"/>
        <line class="st2" x1="71.25" y1="352.81" x2="961.54" y2="351.55"/>
        <line class="st2" x1="35.93" y1="250.89" x2="996.95" y2="249.74"/>
        <path class="st13" d="M63.27,428.77c195.08,223.61,172.39,221.97,157.36,515.12l-17.87,348.65-3.04,68.99c-12.18-1.18-24.44-2.49-36.51-3.95.05-16.86.75-54.4.91-70.45,3.77-375.98,33.2-535.2-126.53-704.87,17.12-61.68,22.01-111.05,25.68-153.49Z"/>
        <path class="st5" d="M63.27,428.77c195.08,223.61,172.39,221.97,157.36,515.12l-17.87,348.65-3.04,68.99c-12.18-1.18-24.44-2.49-36.51-3.95.05-16.86.75-54.4.91-70.45,3.77-375.98,33.2-535.2-126.53-704.87,17.12-61.68,22.01-111.05,25.68-153.49Z"/>
        <path class="st8" d="M58.42,422.82c2.3,2.63,9.41,11.19,11.65,13.76,187.75,215.8,165.41,217.61,150.56,507.31l-18.15,354.32-2.75,63.32"/>
        <path class="st13" d="M969.62,428.77c-195.08,223.61-172.39,221.97-157.36,515.12l17.87,348.65,3.04,68.99c12.18-1.18,24.44-2.49,36.51-3.95-.05-16.86-.75-54.4-.91-70.45-3.77-375.98-33.2-535.2,126.53-704.87-17.12-61.68-22.01-111.05-25.68-153.49Z"/>
        <path class="st5" d="M969.62,428.77c-195.08,223.61-172.39,221.97-157.36,515.12l17.87,348.65,3.04,68.99c12.18-1.18,24.44-2.49,36.51-3.95-.05-16.86-.75-54.4-.91-70.45-3.77-375.98-33.2-535.2,126.53-704.87-17.12-61.68-22.01-111.05-25.68-153.49Z"/>
        <path class="st8" d="M974.46,422.82c-2.3,2.63-9.41,11.19-11.65,13.76-187.75,215.8-165.41,217.61-150.56,507.31l18.15,354.32,2.75,63.32"/>
      </g>
    </g>
  </g>
  <rect class="st12" x="38.97" y="106.65" width="1188" height="65.04"/>
  <rect class="st9" x="195.16" y="1900.56" width="657.47" height="53.43"/>
  <g>
    <rect class="st16" x="1107.6" y="173.83" width="862.11" height="1172.93"/>
    <g class="st10">
      <g>
        <path class="st6" d="M1077.59,422.77c2.31,2.58,9.47,10.95,11.73,13.46,188.99,211.14,166.5,212.91,151.56,496.34l-18.28,346.66-2.77,61.95"/>
        <path class="st6" d="M1999.71,422.77c-2.31,2.58-9.47,10.95-11.72,13.46-188.99,211.14-166.51,212.91-151.56,496.34l18.28,346.66,2.77,61.95"/>
      </g>
    </g>
  </g>
  <g>
    <path class="st16" d="M1095.98,1579.38s-46.05-16.25-136.44-71.67c-23.67-14.51-133.22-81.11-160.05-91.91-141.69-57.02-279.77-48.64-279.77-48.64,0,0-138.08-8.38-279.77,48.64-26.83,10.8-136.38,77.4-160.05,91.91-90.39,55.41-136.44,71.67-136.44,71.67l150.33,312.08-12.53,62.42h876.91l-12.53-62.42,150.33-312.08Z"/>
    <g class="st14">
      <path class="st13" d="M14.83,1452.98c283.5,352.58,250.51,349.99,228.67,812.21l-25.96,549.74-4.41,108.78c-17.7-1.86-35.51-3.93-53.06-6.22.07-26.58,3.37-85.86,1.32-111.08-47.45-583.49-125.84-902.57-259.88-1187.41,24.88-97.26,107.98-99.11,113.32-166.02Z"/>
      <path class="st0" d="M14.83,1452.98c283.5,352.58,250.51,349.99,228.67,812.21l-25.96,549.74-4.41,108.78c-17.7-1.86-35.51-3.93-53.06-6.22.07-26.58,3.37-85.86,1.32-111.08-47.45-583.49-125.84-902.57-259.88-1187.41,24.88-97.26,107.98-99.11,113.32-166.02Z"/>
      <path class="st7" d="M7.79,1443.59c3.34,4.15,13.68,17.64,16.93,21.7,272.83,340.27,240.37,343.12,218.79,799.9l-26.38,558.68-3.99,99.84"/>
      <path class="st13" d="M1021.32,1452.98c-283.49,352.58-250.51,349.99-228.67,812.21l25.96,549.74,4.41,108.78c17.7-1.86,35.51-3.93,53.06-6.22-.07-26.58-3.32-85.86-1.32-111.08,45.53-573.71,135.15-869.28,276.4-1170.89-24.88-97.26-124.5-115.63-129.84-182.54Z"/>
      <path class="st0" d="M1021.32,1452.98c-283.49,352.58-250.51,349.99-228.67,812.21l25.96,549.74,4.41,108.78c17.7-1.86,35.51-3.93,53.06-6.22-.07-26.58-3.32-85.86-1.32-111.08,45.53-573.71,135.15-869.28,276.4-1170.89-24.88-97.26-124.5-115.63-129.84-182.54Z"/>
      <path class="st7" d="M1028.36,1443.59c-3.34,4.15-13.68,17.64-16.93,21.7-272.83,340.27-240.37,343.12-218.79,799.9l26.38,558.68,3.99,99.84"/>
      <line class="st1" x1="545.26" y1="1080.07" x2="547.07" y2="2476.51"/>
      <line class="st1" x1="492.38" y1="1080.07" x2="494.2" y2="2476.51"/>
    </g>
  </g>
  <g>
    <path class="st16" d="M2106.92,1579.38s-46.05-16.25-136.44-71.67c-23.67-14.51-133.22-81.11-160.05-91.91-141.69-57.02-279.77-48.64-279.77-48.64,0,0-138.08-8.38-279.77,48.64-26.83,10.8-136.38,77.4-160.05,91.91-90.39,55.41-136.44,71.67-136.44,71.67l150.33,312.08-12.53,62.42h876.91l-12.53-62.42,150.33-312.08Z"/>
    <g class="st11">
      <path class="st13" d="M1025.77,1452.98c283.5,352.58,250.51,349.99,228.67,812.21l-25.96,549.74-4.41,108.78c-17.7-1.86-35.51-3.93-53.06-6.22.07-26.58,3.37-85.86,1.32-111.08-47.45-583.49-125.84-902.57-259.88-1187.41,24.88-97.26,107.98-99.11,113.32-166.02Z"/>
      <path class="st0" d="M1025.77,1452.98c283.5,352.58,250.51,349.99,228.67,812.21l-25.96,549.74-4.41,108.78c-17.7-1.86-35.51-3.93-53.06-6.22.07-26.58,3.37-85.86,1.32-111.08-47.45-583.49-125.84-902.57-259.88-1187.41,24.88-97.26,107.98-99.11,113.32-166.02Z"/>
      <path class="st7" d="M1018.72,1443.59c3.34,4.15,13.68,17.64,16.93,21.7,272.83,340.27,240.37,343.12,218.79,799.9l-26.38,558.68-3.99,99.84"/>
      <path class="st13" d="M2032.25,1452.98c-283.49,352.58-250.51,349.99-228.67,812.21l25.96,549.74,4.41,108.78c17.7-1.86,35.51-3.93,53.06-6.22-.07-26.58-3.32-85.86-1.32-111.08,45.53-573.71,135.15-869.28,276.4-1170.89-24.88-97.26-124.5-115.63-129.84-182.54Z"/>
      <path class="st0" d="M2032.25,1452.98c-283.49,352.58-250.51,349.99-228.67,812.21l25.96,549.74,4.41,108.78c17.7-1.86,35.51-3.93,53.06-6.22-.07-26.58-3.32-85.86-1.32-111.08,45.53-573.71,135.15-869.28,276.4-1170.89-24.88-97.26-124.5-115.63-129.84-182.54Z"/>
      <path class="st7" d="M2039.29,1443.59c-3.34,4.15-13.68,17.64-16.93,21.7-272.83,340.27-240.37,343.12-218.79,799.9l26.38,558.68,3.99,99.84"/>
      <line class="st1" x1="1556.19" y1="1080.07" x2="1558.01" y2="2476.51"/>
      <line class="st1" x1="1503.31" y1="1080.07" x2="1505.13" y2="2476.51"/>
    </g>
  </g>
</svg>